<mxfile host="app.diagrams.net" agent="Mozilla/5.0 (Windows NT 10.0; Win64; x64; rv:133.0) Gecko/20100101 Firefox/133.0" version="25.0.1">
  <diagram name="PÃ¡gina-1" id="_Ud59tJBUWcUQSjocqw0">
    <mxGraphModel dx="1195" dy="622" grid="1" gridSize="10" guides="1" tooltips="1" connect="1" arrows="1" fold="1" page="1" pageScale="1" pageWidth="827" pageHeight="1169" math="0" shadow="0">
      <root>
        <mxCell id="0" />
        <mxCell id="1" parent="0" />
        <mxCell id="T7SyAay00Wh4ZGUS1BWA-1" value="INICIO" style="strokeWidth=2;html=1;shape=mxgraph.flowchart.start_1;whiteSpace=wrap;" vertex="1" parent="1">
          <mxGeometry x="350" y="30" width="100" height="60" as="geometry" />
        </mxCell>
        <mxCell id="T7SyAay00Wh4ZGUS1BWA-2" value="FIM" style="strokeWidth=2;html=1;shape=mxgraph.flowchart.start_1;whiteSpace=wrap;" vertex="1" parent="1">
          <mxGeometry x="350" y="440" width="100" height="60" as="geometry" />
        </mxCell>
        <mxCell id="T7SyAay00Wh4ZGUS1BWA-3" value="NOME" style="html=1;strokeWidth=2;shape=manualInput;whiteSpace=wrap;rounded=1;size=26;arcSize=11;strokeColor=default;align=center;verticalAlign=middle;fontFamily=Helvetica;fontSize=12;fontColor=default;fillColor=default;" vertex="1" parent="1">
          <mxGeometry x="350" y="120" width="100" height="60" as="geometry" />
        </mxCell>
        <mxCell id="T7SyAay00Wh4ZGUS1BWA-4" value="SOBRENOME" style="html=1;strokeWidth=2;shape=manualInput;whiteSpace=wrap;rounded=1;size=26;arcSize=11;strokeColor=default;align=center;verticalAlign=middle;fontFamily=Helvetica;fontSize=12;fontColor=default;fillColor=default;" vertex="1" parent="1">
          <mxGeometry x="350" y="220" width="100" height="60" as="geometry" />
        </mxCell>
        <mxCell id="T7SyAay00Wh4ZGUS1BWA-5" value="&lt;div&gt;NOME&lt;/div&gt;&lt;div&gt;SOBRENOME&lt;br&gt;&lt;/div&gt;" style="strokeWidth=2;html=1;shape=mxgraph.flowchart.display;whiteSpace=wrap;strokeColor=default;align=center;verticalAlign=middle;fontFamily=Helvetica;fontSize=12;fontColor=default;fillColor=default;" vertex="1" parent="1">
          <mxGeometry x="350" y="330" width="100" height="60" as="geometry" />
        </mxCell>
        <mxCell id="T7SyAay00Wh4ZGUS1BWA-7" style="edgeStyle=orthogonalEdgeStyle;rounded=0;orthogonalLoop=1;jettySize=auto;html=1;exitX=0.5;exitY=1;exitDx=0;exitDy=0;exitPerimeter=0;entryX=0.51;entryY=0.25;entryDx=0;entryDy=0;entryPerimeter=0;fontFamily=Helvetica;fontSize=12;fontColor=default;" edge="1" parent="1" source="T7SyAay00Wh4ZGUS1BWA-1" target="T7SyAay00Wh4ZGUS1BWA-3">
          <mxGeometry relative="1" as="geometry" />
        </mxCell>
        <mxCell id="T7SyAay00Wh4ZGUS1BWA-8" style="edgeStyle=orthogonalEdgeStyle;rounded=0;orthogonalLoop=1;jettySize=auto;html=1;exitX=0.5;exitY=1;exitDx=0;exitDy=0;entryX=0.5;entryY=0.333;entryDx=0;entryDy=0;entryPerimeter=0;fontFamily=Helvetica;fontSize=12;fontColor=default;" edge="1" parent="1" source="T7SyAay00Wh4ZGUS1BWA-3" target="T7SyAay00Wh4ZGUS1BWA-4">
          <mxGeometry relative="1" as="geometry" />
        </mxCell>
        <mxCell id="T7SyAay00Wh4ZGUS1BWA-9" style="edgeStyle=orthogonalEdgeStyle;rounded=0;orthogonalLoop=1;jettySize=auto;html=1;exitX=0.5;exitY=1;exitDx=0;exitDy=0;entryX=0.5;entryY=0;entryDx=0;entryDy=0;entryPerimeter=0;fontFamily=Helvetica;fontSize=12;fontColor=default;" edge="1" parent="1" source="T7SyAay00Wh4ZGUS1BWA-4" target="T7SyAay00Wh4ZGUS1BWA-5">
          <mxGeometry relative="1" as="geometry" />
        </mxCell>
        <mxCell id="T7SyAay00Wh4ZGUS1BWA-10" style="edgeStyle=orthogonalEdgeStyle;rounded=0;orthogonalLoop=1;jettySize=auto;html=1;exitX=0.5;exitY=1;exitDx=0;exitDy=0;exitPerimeter=0;entryX=0.5;entryY=0;entryDx=0;entryDy=0;entryPerimeter=0;fontFamily=Helvetica;fontSize=12;fontColor=default;" edge="1" parent="1" source="T7SyAay00Wh4ZGUS1BWA-5" target="T7SyAay00Wh4ZGUS1BWA-2">
          <mxGeometry relative="1" as="geometry" />
        </mxCell>
      </root>
    </mxGraphModel>
  </diagram>
</mxfile>
